<svg xmlns="http://www.w3.org/2000/svg" viewBox="0 0 512 512">
  <style>*{fill:#000}</style>
  <path
    d="M324.5 91.2h-12V45.8h12v45.4Zm-31.3 227.3h-12v102.3h12V318.5Zm0-204.5h-12v34h12v-34Zm125 204.5h-12v91h12v-91Zm31.3 11.4h-12v45.4h12V330ZM293.2 193.5h-12v68.2h12v-68.2Zm31.3-34h-12v125h12v-125Zm125-68.3h-12v159.1h12v-159Zm31.3 11.4h-12v90.9h12v-91ZM512 114h-12v34h12v-34Zm-250 56.8h-12V364h12V170.8Zm93.8-34.1h-12V182h12v-45.4ZM387 114h-12v45.4h12V114Zm31.3-22.8h-12v91h12v-91Zm-62.6 125h-12v68.2h12v-68.2ZM387 239h-12v45.4h12V239Zm31.3-22.8h-12v68.2h12v-68.2Zm-93.8 91h-12V364h12v-57Zm31.3 0h-12v34h12v-34Zm31.2 0h-12V364h12v-57Zm-62.5 79.5h-12v68.2h12v-68.2Zm31.3 22.7h-12v56.8h12v-56.8Zm31.2-22.7h-12v56.8h12v-56.8Zm-187.5-341h-12v45.5h12V45.8Zm31.3 272.8h-12v102.3h12V318.5Zm0-204.5h-12v34h12v-34Zm-125 204.5h-12v91h12v-91Zm-31.3 11.4h-12v45.4h12V330Zm156.3-136.4h-12v68.2h12v-68.2Zm-31.3-34h-12v125h12v-125Zm-125-68.3h-12v159.1h12v-159Zm-31.3 11.4h-12v90.9h12v-91ZM12 114H0v34h12v-34Zm156.3 22.7h-12V182h12v-45.4ZM137 114h-12v45.4h12V114Zm-31.3-22.8h-12v91h12v-91Zm62.5 125h-12v68.2h12v-68.2ZM137 239h-12v45.4h12V239Zm-31.3-22.8h-12v68.2h12v-68.2Zm93.8 91h-12V364h12v-57Zm-31.3 0h-12v34h12v-34Zm-31.2 0h-12V364h12v-57Zm62.5 79.5h-12v68.2h12v-68.2Zm-31.3 22.7h-12v56.8h12v-56.8ZM137 386.7h-12v56.8h12v-56.8Z" />
</svg>